<svg xmlns="http://www.w3.org/2000/svg" viewBox="0 0 700 380" font-family="'Segoe UI', system-ui, sans-serif">
  <rect width="700" height="380" fill="#f8fafc"/>

  <text x="350" y="35" text-anchor="middle" fill="#0f172a" font-size="20" font-weight="600">Cost Per Day — Production Usage</text>
  <text x="350" y="57" text-anchor="middle" fill="#64748b" font-size="13">507 requests · 1.9M tokens · Sterling OMS workspace</text>

  <!-- Bars -->
  <text x="195" y="105" text-anchor="end" fill="#475569" font-size="13">Router (llama-3.3)</text>
  <rect x="210" y="90" width="24" height="22" rx="4" fill="#0ea5e9"/>
  <text x="245" y="106" fill="#0ea5e9" font-size="13" font-weight="600">$0.02</text>
  <text x="295" y="106" fill="#94a3b8" font-size="11">$0.10/M tokens</text>

  <text x="195" y="155" text-anchor="end" fill="#475569" font-size="13">Workers (deepseek)</text>
  <rect x="210" y="140" width="280" height="22" rx="4" fill="#8b5cf6"/>
  <text x="500" y="156" fill="#8b5cf6" font-size="13" font-weight="600">$0.28</text>
  <text x="550" y="156" fill="#94a3b8" font-size="11">$0.32/M tokens</text>

  <text x="195" y="205" text-anchor="end" fill="#475569" font-size="13">Tool calls (local)</text>
  <rect x="210" y="190" width="3" height="22" rx="1" fill="#10b981"/>
  <text x="225" y="206" fill="#10b981" font-size="13" font-weight="600">$0.00</text>
  <text x="275" y="206" fill="#94a3b8" font-size="11">grep, ChromaDB, config — free</text>

  <text x="195" y="255" text-anchor="end" fill="#475569" font-size="13">Synthesis calls</text>
  <rect x="210" y="240" width="30" height="22" rx="4" fill="#f59e0b"/>
  <text x="250" y="256" fill="#f59e0b" font-size="13" font-weight="600">$0.03</text>
  <text x="300" y="256" fill="#94a3b8" font-size="11">follow-up LLM for coherent output</text>

  <!-- Divider -->
  <line x1="80" y1="285" x2="620" y2="285" stroke="#e2e8f0" stroke-width="1"/>

  <!-- Total -->
  <text x="195" y="320" text-anchor="end" fill="#0f172a" font-size="16" font-weight="700">TOTAL</text>
  <rect x="210" y="302" width="310" height="28" rx="6" fill="#f1f5f9" stroke="#0f172a" stroke-width="1"/>
  <text x="530" y="322" fill="#0f172a" font-size="20" font-weight="700">$0.33</text>

  <text x="350" y="360" text-anchor="middle" fill="#94a3b8" font-size="12">Per-agent model control: cheap model routes, capable model reasons</text>
</svg>
