<svg xmlns="http://www.w3.org/2000/svg" viewBox="0 0 1200 630" font-family="'Segoe UI', system-ui, sans-serif">
  <rect width="1200" height="630" fill="#f8fafc"/>

  <!-- Title -->
  <text x="600" y="100" text-anchor="middle" fill="#0f172a" font-size="56" font-weight="700">SwarmKit</text>
  <text x="600" y="145" text-anchor="middle" fill="#64748b" font-size="24">Multi-agent AI swarms from YAML, not code</text>

  <!-- Three pillars -->
  <rect x="80" y="200" width="320" height="210" rx="16" fill="#ffffff" stroke="#0ea5e9" stroke-width="2"/>
  <rect x="80" y="200" width="320" height="44" rx="16" fill="#0ea5e9"/>
  <rect x="80" y="228" width="320" height="16" fill="#0ea5e9"/>
  <text x="240" y="230" text-anchor="middle" fill="#ffffff" font-size="17" font-weight="600">Topology as Data</text>
  <text x="240" y="275" text-anchor="middle" fill="#475569" font-size="14">agents:</text>
  <text x="240" y="295" text-anchor="middle" fill="#475569" font-size="14">  root:</text>
  <text x="240" y="315" text-anchor="middle" fill="#475569" font-size="14">    children:</text>
  <text x="240" y="335" text-anchor="middle" fill="#475569" font-size="14">      - architect</text>
  <text x="240" y="355" text-anchor="middle" fill="#475569" font-size="14">      - developer</text>
  <text x="240" y="395" text-anchor="middle" fill="#94a3b8" font-size="12">YAML in → LangGraph out</text>

  <rect x="440" y="200" width="320" height="210" rx="16" fill="#ffffff" stroke="#8b5cf6" stroke-width="2"/>
  <rect x="440" y="200" width="320" height="44" rx="16" fill="#8b5cf6"/>
  <rect x="440" y="228" width="320" height="16" fill="#8b5cf6"/>
  <text x="600" y="230" text-anchor="middle" fill="#ffffff" font-size="17" font-weight="600">Skills as Extension</text>
  <text x="600" y="275" text-anchor="middle" fill="#475569" font-size="14">capability · decision</text>
  <text x="600" y="300" text-anchor="middle" fill="#475569" font-size="14">coordination · persistence</text>
  <text x="600" y="340" text-anchor="middle" fill="#475569" font-size="14">7,000+ MCP servers</text>
  <text x="600" y="365" text-anchor="middle" fill="#475569" font-size="14">as plug-in skills</text>
  <text x="600" y="395" text-anchor="middle" fill="#94a3b8" font-size="12">One mental model</text>

  <rect x="800" y="200" width="320" height="210" rx="16" fill="#ffffff" stroke="#10b981" stroke-width="2"/>
  <rect x="800" y="200" width="320" height="44" rx="16" fill="#10b981"/>
  <rect x="800" y="228" width="320" height="16" fill="#10b981"/>
  <text x="960" y="230" text-anchor="middle" fill="#ffffff" font-size="17" font-weight="600">Growth by Authoring</text>
  <text x="960" y="275" text-anchor="middle" fill="#475569" font-size="14">swarmkit init .</text>
  <text x="960" y="300" text-anchor="middle" fill="#475569" font-size="14">swarmkit author skill .</text>
  <text x="960" y="340" text-anchor="middle" fill="#475569" font-size="14">Gap detected →</text>
  <text x="960" y="365" text-anchor="middle" fill="#475569" font-size="14">skill authored → approved</text>
  <text x="960" y="395" text-anchor="middle" fill="#94a3b8" font-size="12">Human-approved evolution</text>

  <!-- Stats -->
  <rect x="80" y="460" width="240" height="80" rx="12" fill="#ffffff" stroke="#e2e8f0" stroke-width="1"/>
  <text x="200" y="500" text-anchor="middle" fill="#0ea5e9" font-size="36" font-weight="700">7</text>
  <text x="200" y="525" text-anchor="middle" fill="#64748b" font-size="14">Model Providers</text>

  <rect x="360" y="460" width="240" height="80" rx="12" fill="#ffffff" stroke="#e2e8f0" stroke-width="1"/>
  <text x="480" y="500" text-anchor="middle" fill="#8b5cf6" font-size="36" font-weight="700">$0.33</text>
  <text x="480" y="525" text-anchor="middle" fill="#64748b" font-size="14">per 500 requests</text>

  <rect x="640" y="460" width="240" height="80" rx="12" fill="#ffffff" stroke="#e2e8f0" stroke-width="1"/>
  <text x="760" y="500" text-anchor="middle" fill="#10b981" font-size="36" font-weight="700">9</text>
  <text x="760" y="525" text-anchor="middle" fill="#64748b" font-size="14">MCP Tool Servers</text>

  <rect x="920" y="460" width="240" height="80" rx="12" fill="#ffffff" stroke="#e2e8f0" stroke-width="1"/>
  <text x="1040" y="500" text-anchor="middle" fill="#f59e0b" font-size="36" font-weight="700">21</text>
  <text x="1040" y="525" text-anchor="middle" fill="#64748b" font-size="14">Skills in Production</text>

  <!-- Footer -->
  <text x="600" y="595" text-anchor="middle" fill="#94a3b8" font-size="14">github.com/delivstat/swarmkit · MIT License · Open Source</text>
</svg>
