<svg xmlns="http://www.w3.org/2000/svg" viewBox="0 0 900 400" font-family="'Segoe UI', system-ui, sans-serif">
  <defs>
    <filter id="sk3" x="-2%" y="-2%" width="104%" height="104%">
      <feTurbulence type="turbulence" baseFrequency="0.02" numOctaves="3" result="n"/>
      <feDisplacementMap in="SourceGraphic" in2="n" scale="1"/>
    </filter>
    <marker id="ar" markerWidth="10" markerHeight="7" refX="9" refY="3.5" orient="auto">
      <polygon points="0 0, 10 3.5, 0 7" fill="#64748b"/>
    </marker>
  </defs>
  <rect width="900" height="400" fill="#0f172a"/>

  <text x="450" y="35" text-anchor="middle" fill="#e2e8f0" font-size="20" font-weight="600">Topology as Data — YAML in, LangGraph out</text>

  <!-- YAML side -->
  <rect x="40" y="60" width="340" height="300" rx="12" fill="#1e293b" stroke="#38bdf8" stroke-width="1.5" filter="url(#sk3)"/>
  <text x="210" y="90" text-anchor="middle" fill="#38bdf8" font-size="14" font-weight="600">topology.yaml</text>

  <text x="65" y="120" fill="#fbbf24" font-size="12">agents:</text>
  <text x="65" y="140" fill="#94a3b8" font-size="12">  root:</text>
  <text x="65" y="158" fill="#64748b" font-size="11">    role: root</text>
  <text x="65" y="176" fill="#64748b" font-size="11">    model: llama-3.3-70b</text>
  <text x="65" y="194" fill="#94a3b8" font-size="12">    children:</text>
  <text x="65" y="214" fill="#38bdf8" font-size="12">      - id: architect</text>
  <text x="65" y="232" fill="#64748b" font-size="11">        archetype: oms-architect</text>
  <text x="65" y="252" fill="#34d399" font-size="12">      - id: developer</text>
  <text x="65" y="270" fill="#64748b" font-size="11">        archetype: oms-developer</text>

  <text x="210" y="340" text-anchor="middle" fill="#64748b" font-size="11">Edit this file to change the swarm</text>

  <!-- Arrow -->
  <line x1="395" y1="200" x2="485" y2="200" stroke="#fbbf24" stroke-width="2" marker-end="url(#ar)"/>
  <text x="440" y="185" text-anchor="middle" fill="#fbbf24" font-size="10">compile_topology()</text>

  <!-- Graph side -->
  <rect x="500" y="60" width="370" height="300" rx="12" fill="#1e293b" stroke="#a78bfa" stroke-width="1.5" filter="url(#sk3)"/>
  <text x="685" y="90" text-anchor="middle" fill="#a78bfa" font-size="14" font-weight="600">LangGraph StateGraph</text>

  <!-- START node -->
  <circle cx="685" cy="125" r="14" fill="#334155" stroke="#94a3b8" stroke-width="1.5"/>
  <text x="685" y="130" text-anchor="middle" fill="#94a3b8" font-size="9">START</text>

  <!-- Root node -->
  <rect x="635" y="155" width="100" height="40" rx="8" fill="#2d2006" stroke="#fbbf24" stroke-width="1.5" filter="url(#sk3)"/>
  <text x="685" y="180" text-anchor="middle" fill="#fbbf24" font-size="12">root</text>

  <!-- Architect node -->
  <rect x="540" y="230" width="110" height="40" rx="8" fill="#0c2744" stroke="#38bdf8" stroke-width="1.5" filter="url(#sk3)"/>
  <text x="595" y="255" text-anchor="middle" fill="#38bdf8" font-size="12">architect</text>

  <!-- Developer node -->
  <rect x="720" y="230" width="110" height="40" rx="8" fill="#0c2e14" stroke="#34d399" stroke-width="1.5" filter="url(#sk3)"/>
  <text x="775" y="255" text-anchor="middle" fill="#34d399" font-size="12">developer</text>

  <!-- END node -->
  <circle cx="685" cy="320" r="14" fill="#334155" stroke="#94a3b8" stroke-width="1.5"/>
  <text x="685" y="325" text-anchor="middle" fill="#94a3b8" font-size="9">END</text>

  <!-- Edges -->
  <line x1="685" y1="139" x2="685" y2="155" stroke="#94a3b8" stroke-width="1.2"/>
  <line x1="655" y1="195" x2="610" y2="230" stroke="#38bdf8" stroke-width="1.2"/>
  <line x1="715" y1="195" x2="760" y2="230" stroke="#34d399" stroke-width="1.2"/>
  <line x1="595" y1="270" x2="670" y2="306" stroke="#38bdf8" stroke-width="1.2" stroke-dasharray="4"/>
  <line x1="775" y1="270" x2="700" y2="306" stroke="#34d399" stroke-width="1.2" stroke-dasharray="4"/>

  <!-- Labels on edges -->
  <text x="560" y="215" fill="#64748b" font-size="9">delegate_to_</text>
  <text x="760" y="215" fill="#64748b" font-size="9">delegate_to_</text>
  <text x="605" y="295" fill="#64748b" font-size="9">return</text>
  <text x="740" y="295" fill="#64748b" font-size="9">return</text>

  <text x="685" y="355" text-anchor="middle" fill="#64748b" font-size="11">Nodes, edges, routing — all from YAML</text>
</svg>
